<?xml version="1.0" encoding="UTF-8" standalone="no"?>
<!-- Creator: CorelDRAW -->

<svg
   xmlns:dc="http://purl.org/dc/elements/1.1/"
   xmlns:cc="http://creativecommons.org/ns#"
   xmlns:rdf="http://www.w3.org/1999/02/22-rdf-syntax-ns#"
   xmlns:svg="http://www.w3.org/2000/svg"
   xmlns="http://www.w3.org/2000/svg"
   xmlns:sodipodi="http://sodipodi.sourceforge.net/DTD/sodipodi-0.dtd"
   xmlns:inkscape="http://www.inkscape.org/namespaces/inkscape"
   xml:space="preserve"
   width="63.6836mm"
   height="115.791mm"
   style="shape-rendering:geometricPrecision; text-rendering:geometricPrecision; image-rendering:optimizeQuality; fill-rule:evenodd; clip-rule:evenodd"
   viewBox="0 0 9.1726 16.6778"
   version="1.1"
   id="svg5136"
   sodipodi:docname="logosuperior.svg"
   inkscape:version="0.92.1 r15371"><metadata
     id="metadata5140"><rdf:RDF><cc:Work
         rdf:about=""><dc:format>image/svg+xml</dc:format><dc:type
           rdf:resource="http://purl.org/dc/dcmitype/StillImage" /></cc:Work></rdf:RDF></metadata><sodipodi:namedview
     pagecolor="#ffffff"
     bordercolor="#666666"
     borderopacity="1"
     objecttolerance="10"
     gridtolerance="10"
     guidetolerance="10"
     inkscape:pageopacity="0"
     inkscape:pageshadow="2"
     inkscape:window-width="760"
     inkscape:window-height="480"
     id="namedview5138"
     showgrid="false"
     inkscape:zoom="0.53926183"
     inkscape:cx="120.34696"
     inkscape:cy="218.81764"
     inkscape:window-x="-8"
     inkscape:window-y="-8"
     inkscape:window-maximized="1"
     inkscape:current-layer="Capa_x0020_1" /><defs
     id="defs5125"><style
       type="text/css"
       id="style5123"><![CDATA[
    .fil1 {fill:white}
    .fil0 {fill:#2d3e50}
   ]]></style></defs><g
     id="Capa_x0020_1"><metadata
       id="CorelCorpID_0Corel-Layer" /><polygon
       class="fil0"
       points="-0,0 9.1726,0 9.1726,13.7939 -0,16.6778 "
       id="polygon5128"
       style="fill:#78081E;fill-opacity:1" /><path
       class="fil1"
       d="M6.32647 6.26788l0.0301031 -0.0855274 0.0038313 -0.010889 0.0110762 -0.00276545c5.76136e-005,0 0.0239096,-0.00622227 0.0317883,-0.00823874 0.00312554,-0.00080659 0.0201936,-0.00926138 0.0310681,-0.0147635l0.00985192 -0.0460188 7.2017e-005 -0.000432102 0.0662556 -0.281543 0.00337039 -0.0142882 0.0138849 -0.00208849 0.0149507 -0.00223253 0.00217491 -0.00754738 0.00472431 -0.0163479 0.0162902 0.000907414 0.0184652 0.00102264 0.00800829 -0.0795932 0.00227574 -0.0226565 0.0215763 0.00348562 0.038097 0.00616465c-0.00452267,-0.0591547 -0.0136976,-0.195324 -0.00470991,-0.221539l4.32102e-005 0 0 -1.44034e-005 0.0196318 0.0072017 -0.0195454 -0.00728812c0.00290949,-0.0084836 0.0055021,-0.0150804 0.00812351,-0.0217635 0.00759059,-0.0194302 0.0156421,-0.0400414 0.0145618,-0.0417122 -0.00118108,-0.00142594 -0.00697124,-0.00259261 -0.0145618,-0.00350002 -0.0114507,-0.00136832 -0.0252203,-0.000864204 -0.0372616,7.2017e-005 -0.0189693,0.00152676 -0.0301895,-0.00067696 -0.0454859,-0.00368727 -0.00759059,-0.00146915 -0.0164199,-0.00324076 -0.0286628,-0.00470991l-0.000288068 -7.2017e-005c-0.00422019,-0.000475312 -0.00809471,-0.000691363 -0.0115947,-0.000691363 -0.00344241,1.44034e-005 -0.00718729,0.000302471 -0.0110618,0.000777783 -0.0177882,0.00217491 -0.0315002,0.00844039 -0.0377225,0.0138273l0 0 -0.00406176 0.00355764 1.44034e-005 4.32102e-005c-0.0174569,0.015426 -0.058377,0.0515353 -0.0895747,0.0515353 -0.0257821,0 -0.0374488,-0.0108746 -0.0477184,-0.0204672 -0.00223253,-0.0021029 -0.00436423,-0.00407616 -0.00566053,-0.00473872l-7.2017e-005 -7.2017e-005c-0.0131359,-0.00685602 -0.0175001,-0.0197327 -0.0185084,-0.031241 -0.0394077,-0.00901652 -0.130495,-0.0320476 -0.138244,-0.0535806l-4.32102e-005 -8.64204e-005 -1.44034e-005 0 0 -5.76136e-005 1.44034e-005 5.76136e-005 -1.44034e-005 0c-0.000576136,-0.00155557 -0.00152676,-0.00361525 -0.00273664,-0.00599181 -0.00136832,-0.00265022 -0.00313994,-0.00580457 -0.00527164,-0.00929019 -0.00766261,-0.0126462 -0.0116667,-0.0302039 -0.0140577,-0.0300455 -0.00272224,0.000979431 -0.0112346,0.00674079 -0.0200927,0.012747 -0.017673,0.0119116 -0.0363974,0.024601 -0.0498213,0.0211154l2.88068e-005 -5.76136e-005 -0.000504119 -5.76136e-005c-0.00332718,-0.000921817 -0.00730252,-0.00279426 -0.0124013,-0.00519963 -0.0111338,-0.00524284 -0.0318027,-0.0149651 -0.0326957,-0.0138849l-4.32102e-005 -4.32102e-005 -5.76136e-005 0.000100824 -0.000187244 0.000244858c-0.0149795,0.0173849 -0.0488563,0.0215187 -0.0721322,0.0243849 -0.00704326,0.000864204 -0.0113643,0.000907414 -0.0122429,0.00122429l0 0c-0.00272224,0.00141153 -0.00854121,0.144452 -0.00858442,0.144898l-0.00226133 0.0293541 -0.0261422 -0.0108746 -0.199257 -0.0827475 -0.0033848 0.0046811 -0.00766261 0.0106297 0.00177162 0.0570951 0.000460909 0.0149939 -0.013496 0.00577576c0,0 -0.01171,-0.00544448 -0.00949184,-0.00115227 0.00996715,0.0193005 0.00123869,0.0372472 -0.00613585,0.0524284 -0.00178602,0.00368727 -0.0033848,0.00456588 -0.0033848,0.00579016 0,0.0107017 0,0.0299879 -0.00217491,0.0503399 -0.000230454,0.00216051 -0.000345681,0.0050844 -0.000345681,0.008498l-8.64204e-005 0c0,0.00681281 0.000604943,0.0144898 0.00174281,0.0210722 0.0180475,-0.00113787 0.0487411,-0.00350002 0.0488275,-0.00350002l0.00602062 -0.000446505 0.00538687 0.00306792 0.12446 0.0709079 0.0158725 0.00904533 -0.00616465 0.0172409c-5.76136e-005,0.000187244 -0.0208273,0.0585066 -0.0264302,0.0672927l5.76136e-005 4.32102e-005c-0.00142594,0.00221812 -0.00288068,0.00396093 -0.00432102,0.00537247 0.000907414,0.00224693 0.00194446,0.00472431 0.00306792,0.00740334l0 8.64204e-005c0.00966468,0.0232471 0.023564,0.056663 0.0120556,0.0775911 -0.00888689,0.0161462 -0.035706,0.052558 -0.0357924,0.0526588l-0.000244858 0.000244858c-0.000172841,0.000244858 -0.0657947,0.085657 -0.0809327,0.0961715l-7.2017e-005 8.64204e-005c-0.00358645,0.00247738 -0.00581897,0.00469551 -0.00728812,0.00700005 -0.00174281,0.00267903 -0.00309673,0.0063663 -0.00459468,0.0109466l-2.88068e-005 -1.44034e-005c-0.000489715,0.00164199 -0.0008498,0.00416258 -0.00119548,0.00658235 -0.0016996,0.0117964 -0.00322636,0.0223253 -0.0190125,0.036383 -0.00277986,0.00249179 -0.00570374,0.0055021 -0.00854121,0.00871405 0.0103848,0.00361525 0.0197903,0.00674079 0.0205536,0.00645272l0.000158437 -7.2017e-005c0.00289508,-0.000979431 0.0059342,-0.00136832 0.00901652,-0.00108025l8.64204e-005 0 0 0c0.00736013,0.00067696 0.0225269,0.00884368 0.035634,0.0200495 0.0124877,0.0106873 0.0250907,0.0250475 0.0301319,0.0394941 0.00205969,0.00590539 0.00299591,0.0120268 0.00247738,0.0182203l8.64204e-005 0 -8.64204e-005 8.64204e-005 0 -8.64204e-005 8.64204e-005 0 -4.32102e-005 0.000403295 -8.64204e-005 8.64204e-005c-0.000590539,0.00663996 -0.00146915,0.0136688 -0.00233335,0.0207409 -0.00200207,0.016031 -0.00401855,0.0324364 -0.00263582,0.0367719l0.000172841 0.000345681 1.44034e-005 0.000115227 -7.2017e-005 2.88068e-005c0.00174281,0.00557411 0.0046667,0.0166791 0.00823874,0.0305496 0.00810911,0.031313 0.0200927,0.0775335 0.0207697,0.0794491l5.76136e-005 -5.76136e-005 2.88068e-005 5.76136e-005 0 8.64204e-005c0.00187244,0.00195886 0.00406176,0.00492596 0.00626548,0.0084836 0.0016996,0.00273664 0.00365846,0.00616465 0.00561732,0.00998155 0.0117388,0.0226277 0.0242409,0.0607103 0.00813792,0.078268 -0.00334159,0.00364406 0.00939101,0.0377513 0.0215475,0.0677968 0.00857002,-0.0200927 0.0181915,-0.0399262 0.0244282,-0.0442904l0.000100824 -7.2017e-005c0.0170392,-0.0117532 0.0721754,0.0171256 0.0723338,0.0172121l0.0138273 0.00661116 -0.00178602 0.0155269c0,0.000100824 -0.0046811,0.0406032 -0.00139713,0.0434406l0.000100824 8.64204e-005c0.00643832,0.00560292 0.0143026,0.0145762 0.0220228,0.0233479 0.00759059,0.00861323 0.0149939,0.0170248 0.0159878,0.0175433l0 1.44034e-005 0.000460909 0.000288068c0.00712968,0.00386011 0.0116956,0.0107881 0.0170536,0.0188108 0.00122429,0.00182923 0.00247738,0.00377369 0.00377369,0.00566053 0.000921817,-0.00308233 0.00188684,-0.00662556 0.00286628,-0.010212 0.00617906,-0.0228582 0.012747,-0.0470991 0.0387739,-0.0554531l-1.44034e-005 0 0.000374488 -0.000144034 -1.44034e-005 -1.44034e-005c0.0133663,-0.00442184 0.030708,-0.020496 0.0419139,-0.0308953 0.00782104,-0.00727371 0.01364,-0.0126462 0.0197471,-0.0147059l0 2.88068e-005c0.0111194,-0.00329838 0.0826179,0.029815 0.118814,0.0471279 0.00156997,-0.00543008 0.0029815,-0.0108458 0.00354324,-0.0149507l0 -0.000158437c0.00249179,-0.0177594 0.00583337,-0.028029 0.0241113,-0.0303912 0.00897331,-0.00116667 0.0192573,0.00276545 0.0362245,0.0122717 0.00260701,-0.00580457 0.00364406,-0.0148067 0.00364406,-0.0225701l0 -0.000360085 8.64204e-005 0c1.44034e-005,-0.00400414 0.000216051,-0.00800829 0.000576136,-0.0119548 0.000360085,-0.00387451 0.00089301,-0.00789306 0.00158437,-0.011854 0.00427781,-0.0248315 0.0163046,-0.0479201 0.0327101,-0.0512905l0 4.32102e-005 0.00108025 -0.000273664c-0.0109322,-0.0254508 -0.0276977,-0.0688194 -0.0204672,-0.0801405l0 -7.2017e-005 1.44034e-005 -7.2017e-005 8.64204e-005 4.32102e-005c0.00135392,-0.00243417 -0.00224693,0.000936221 -0.00226133,-0.00184363 -0.000244858,-0.0191997 -0.000547329,-0.0434694 0.0238664,-0.0507288l0 -2.88068e-005c0.000115227,-4.32102e-005 0.000115227,-0.000172841 0.000158437,-0.000432102 -0.0443625,-0.0122285 -0.0345681,-0.0470991 -0.0345537,-0.0471999l0.000475312 -0.00152676zm1.00033 -1.26288l-0.115587 0.160742 -0.00744655 0.010356 -0.0121565 -0.00187244c-0.000835397,-0.000129631 -0.295342,-0.0454139 -0.356052,-0.0033992 -0.0306936,0.021245 -0.0602782,0.0310393 -0.0872846,0.039955 -0.0317163,0.0104857 -0.0592268,0.0195742 -0.0747536,0.0464654l-4.32102e-005 -4.32102e-005c-0.0128622,0.0223685 -0.0161606,0.0598029 -0.0158005,0.0951056 0.00165639,0.000129631 0.00329838,0.000316875 0.00494036,0.000518522 0.0183643,0.00217491 0.0345681,0.00829636 0.0436135,0.0213602l8.64204e-005 0.000100824c0.0144034,0.0210578 0.00193005,0.0529901 -0.00985192,0.083122 -0.00302471,0.00770582 -0.00596301,0.015282 -0.00760499,0.0199631l5.76136e-005 1.44034e-005 -2.88068e-005 0.000100824 -4.32102e-005 -1.44034e-005 7.2017e-005 -8.64204e-005 -5.76136e-005 -1.44034e-005 -1.44034e-005 0.000100824 -0.000921817 -0.000345681 0.000921817 0.000345681 0 0 0 0 0 0 -0.000921817 -0.000345681 -0.0186668 -0.00685602 0.0196318 0.00730252c-0.0084836,0.024745 0.00916056,0.230094 0.00920377,0.230699l0.00236216 0.0275105 -0.026315 -0.00429221 -0.0426773 -0.00689923 -0.00776343 0.0774471 -0.00205969 0.0205104 -0.0196894 -0.00108025 -0.0218644 -0.00119548 -0.0012819 0.00447946 -0.00384571 0.0133087 -0.0131791 0.00197327 -0.0142306 0.0021317 -0.0628852 0.267241 -2.88068e-005 0 -0.0119116 0.0558708 -0.00223253 0.010356 -0.00916056 0.00458028c-0.000115227,5.76136e-005 -0.0366998,0.0193582 -0.0481217,0.0223109 -0.00449386,0.00113787 -0.0138417,0.00358645 -0.0213458,0.00554531l-0.0251339 0.0714552c0.000950624,-0.00208849 0.00292389,-0.00518522 0.00599181,-0.00445065 0.0113211,0.00270784 0.0191853,0.00851241 0.0242697,0.0159734 0.00517082,0.00760499 0.00701445,0.0162038 0.00645272,0.0247594 -0.000475312,0.00711528 -0.00272224,0.0141873 -0.00603502,0.0203808l-5.76136e-005 0c-0.00570374,0.0106153 -0.015354,0.0195598 -0.0255516,0.0225845l-8.64204e-005 0c-0.00619346,0.00181483 0.00627988,0.00394653 0.0063519,0.00852681 0.000115227,0.00982311 0.000187244,0.0183067 -0.00450826,0.0259693l-0.000158437 0.000417698 -1.44034e-005 5.76136e-005 -4.32102e-005 -1.44034e-005c-0.00205969,0.00419139 0.0312266,0.055021 0.0312842,0.0551938l0.00831076 0.0170536 -0.0147347 0.0105145c-5.76136e-005,2.88068e-005 -0.0174425,0.0130351 -0.0319899,0.0161318l-0.000158437 5.76136e-005c-0.00204528,0.000417698 0.00175721,0.0072305 0.000187244,0.0163767 -0.000460909,0.00265022 -0.0008498,0.00545889 -0.00108025,0.00825314 -0.000259261,0.00277986 -0.000432102,0.00544448 -0.000432102,0.00789306l0.000100824 0 0 0.000360085c0,0.0144466 -0.00277986,0.0326237 -0.0100824,0.0457308 -0.00315434,0.00570374 -0.00727371,0.0106729 -0.0124445,0.0144466 -0.00600622,0.00436423 -0.0128622,0.00687042 -0.0207121,0.00687042 -0.00665437,0 -0.0138417,-0.00190125 -0.0215187,-0.00619346l-0.000100824 0 -0.00229014 -0.00129631c-0.00398974,0.0158725 -0.0106009,0.0336319 -0.0106153,0.0336895l-0.00517082 0.0133952 0.0179178 0.196217 -0.041525 0 -0.01871 -0.207783c-0.0308521,-0.0161318 -0.088192,-0.045846 -0.0897908,-0.0452843l-0.000144034 5.76136e-005c-0.00223253,0.00076338 -0.000792187,0.00208849 -0.00491156,0.00590539 -0.0138273,0.0128334 -0.0352163,0.0326813 -0.0570662,0.0398974l-5.76136e-005 0 -0.000460909 0.000144034 -8.64204e-005 0c-0.00439304,0.00139713 -0.00780664,0.0139425 -0.0110042,0.0257677 -0.00416258,0.015426 -0.00818113,0.0302183 -0.0192717,0.0405167l-7.2017e-005 7.2017e-005 -0.000144034 0.000144034 -0.000100824 0c-0.0185228,0.0168952 -0.0345249,0.00939101 -0.0482802,-0.00570374 -0.00501238,-0.0055165 -0.00927579,-0.0118972 -0.0130495,-0.0175865 -0.00207409,-0.00309673 -0.000230454,-0.0038313 -0.00167079,-0.00483954l-2.88068e-005 -1.44034e-005c-0.00783545,-0.00404735 -0.0178746,-0.0155125 -0.0282018,-0.0272368 -0.00672639,-0.0076482 -0.0136112,-0.0154836 -0.0179466,-0.0192429l-0.000100824 -8.64204e-005c-0.0152244,-0.0132223 -0.0153684,-0.050844 -0.0143314,-0.0700437 -0.00770582,-0.00586218 -0.0164919,-0.0116667 -0.0190989,-0.00988073 -0.00200207,0.0025494 -0.0276545,0.071945 -0.0277121,0.0721178l-0.0182923 0.0463069 -0.0198335 -0.045774c-0.000158437,-0.000388892 -0.0600766,-0.1329 -0.0333727,-0.162096 8.64204e-005,-7.2017e-005 -0.00874286,-0.0164775 -0.0146483,-0.0278418 -0.00145474,-0.00280866 -0.00280866,-0.00522843 -0.00398974,-0.00712968 -0.000604943,-0.000979431 -0.000590539,-0.00113787 -0.000705766,-0.00129631l-4.32102e-005 1.44034e-005 -1.44034e-005 -1.44034e-005 0 -8.64204e-005c-0.00815232,-0.00852681 -0.0221524,-0.0624963 -0.0315722,-0.0988505 -0.00378809,-0.0146194 -0.00681281,-0.026243 -0.00750417,-0.0284323l-2.88068e-005 -4.32102e-005 -1.44034e-005 0 -1.44034e-005 -5.76136e-005 -0.000100824 -0.000158437 -4.32102e-005 -0.000100824 4.32102e-005 -4.32102e-005c-0.00422019,-0.0136832 -0.00158437,-0.0348994 0.000950624,-0.0555827 0.0008498,-0.00668317 0.00167079,-0.0133231 0.00218932,-0.0191277l-8.64204e-005 -2.88068e-005 2.88068e-005 -0.000158437 -2.88068e-005 0c-4.32102e-005,5.76136e-005 -4.32102e-005,0.000100824 -7.2017e-005,2.88068e-005 -0.00218932,-0.00622227 -0.00966468,-0.0141873 -0.0174281,-0.0208273 -0.00707207,-0.00604943 -0.0122141,-0.0101832 -0.0125886,-0.010212l-5.76136e-005 0c-0.000460909,-4.32102e-005 -0.000403295,-0.000115227 1.44034e-005,-0.000216051l0 -0.000144034c-0.0209713,-0.00089301 -0.0674655,-0.0171688 -0.0676239,-0.0171977l-0.0284179 -0.00913175 0.017673 -0.0243129c4.32102e-005,-5.76136e-005 0.0173705,-0.0248315 0.0334303,-0.0391916 0.00394653,-0.00350002 0.00437863,-0.00643832 0.00483954,-0.0097511 0.000561732,-0.00396093 0.00118108,-0.00813792 0.00302471,-0.0139425l0 -7.2017e-005c0.0025638,-0.00789306 0.00519963,-0.0146338 0.00949184,-0.0212882 0.00453707,-0.00707207 0.010356,-0.0131935 0.0188684,-0.0190557l0 2.88068e-005c0.00895891,-0.00648153 0.0674079,-0.0819409 0.0713256,-0.0869965l-4.32102e-005 -4.32102e-005c8.64204e-005,-0.000100824 0.0253068,-0.0344097 0.0325373,-0.0475456 0.00123869,-0.00226133 -0.00770582,-0.0238088 -0.0139713,-0.038846l-4.32102e-005 1.44034e-005c-0.00217491,-0.00525724 -0.00411937,-0.00993834 -0.00544448,-0.013568l-0.000172841 -0.000417698 -1.44034e-005 -0.000100824 1.44034e-005 -1.44034e-005c-0.00972229,-0.0272944 0.000201648,-0.0345537 0.0112058,-0.0417842 0.00266463,-0.00596301 0.00954945,-0.0246874 0.0147059,-0.0388892l-0.103143 -0.0587226c-0.0145042,0.00108025 -0.0510168,0.0038025 -0.0577576,0.0038025l-0.00115227 -0.000100824 -0.000288068 -2.88068e-005 -0.00089301 -7.2017e-005c-0.0139569,-0.00148355 -0.0222676,-0.014533 -0.0258685,-0.0318747 -0.00201648,-0.00969348 -0.00311113,-0.0220948 -0.00311113,-0.0330414l-8.64204e-005 0c0,-0.00443625 0.000216051,-0.00897331 0.00067696,-0.0132367 0.00184363,-0.0172121 0.00184363,-0.0354612 0.00184363,-0.0456011 0,-0.0089013 0.00375929,-0.0166503 0.00795067,-0.0252924 0.00289508,-0.0059342 0.00691363,-0.0118252 0.00661116,-0.0124013 -0.00865644,-0.0167223 -0.00377369,-0.0302759 0.00440744,-0.0401855 -0.0250475,-0.00907414 -0.0667309,0.00156997 -0.133231,0.080515l-0.00132511 0.00144034c-0.000158437,0.000187244 -0.0362966,0.0375352 -0.0928011,0.0140865 -0.021922,0.0118252 -0.00875726,0.013568 -0.130308,0.013568l-0.0649881 0.00276545 0.0305928 0.0574839 -0.0429941 0c-0.0285187,0 -0.0207121,0.0223397 -0.0516218,0.0430517l0.000619346 0.0443769 -0.0436135 0.0158725 0 0.0860891c0,0.0287924 -0.0186092,0.0264302 -0.0462781,0.0255948l-0.0312266 0.177925 4.32102e-005 0.00311113 0 0.0860747c0,0.0299159 -0.0171832,0.0131359 -0.0171832,0.0430517l0 0.00859883c0,0.0238232 0.00663996,0.0206977 0.0258109,0.0258397l0 0.0344385 -0.0344097 0 0.00442184 0.0306648 0.0215907 0.0296134 -0.00449386 0.0650457 0.0309529 0.0382554c-0.00869965,0.13748 0.0192141,0.565132 -0.131172,0.657544l-0.0503399 0.108573 -0.0185804 0.0012531 -0.00625107 0.0218067 -0.00246298 0.00864204 -0.00756178 0.0042634 -0.0128766 0.00727371 -0.0679552 0.156075 -0.00473872 -0.0185084 -0.0206545 0.00419139 -0.0434262 0.0573543 -0.00491156 -0.0195454 -0.0772454 0.00965027 0 0.0172265c-0.058665,-0.00132511 -0.0268479,-0.0172265 -0.0602206,-0.0172265l-0.00858442 0c-0.0291957,0 -0.0860459,0.0689202 -0.0902229,0.12577l-0.0202224 0.0353459 -2.88068e-005 0.00241977 0.0244282 0c0.0283171,0 0.0859883,-0.0216195 0.0946303,-0.0430373 0.0923114,0 0.227286,-0.121939 0.266664,-0.180763 0,-0.0452411 -0.00949184,-0.0422452 0.022066,-0.0498501l0.0464942 0.0971365 0.00887249 -0.00427781c0,0.0582473 0.0251627,0.0805582 0.0405312,0.123005 0.0237944,0.0655931 0.0727948,0.00786425 0.0970789,0.0750129l0.0341649 0.00354324 0.146497 0.0050844c0.0591547,0.123351 0.0576136,0.0789882 0.156378,0.144826 0.0424756,0.0282883 0.0266175,0.0282883 0.0887969,0.0574839 0.0472863,0.0221812 0.076266,0.0120124 0.116106,0.0387019 0.101846,0 0.181022,0.0382842 0.270078,0.0654922 0.0735581,0.0224693 0.0337039,0.0361813 0.125626,0.0205825 0.0888689,-0.0150227 0.0657803,-0.00839718 0.123768,0.0311401 0.0828771,0.0564613 0.10755,0.0923402 0.172207,0.163392 0.0338768,0.0371896 0.0582329,0.145791 0.106628,0.186913l-0.0444633 -0.493504 0.0426196 0 0.0547041 0.599945c0.0418995,0.0952352 0.121075,0.207164 0.121536,0.293916l0.0201071 0.0120844 0.0392637 0.11913 0.0260125 0.00812351 0 0.0688626 0.0172121 0 0 0.0430373c0,0.0034136 0.00387451,0.0104857 0.00954945,0.0195886 0.359595,-0.0195886 0.647735,-0.319799 0.647735,-0.684046l0 -3.30071zm-2.35478 1.26878l0.0749409 -0.427089 -0.0204672 -0.130538c-0.0440024,-0.0177882 -0.0344241,-0.196981 -0.0344241,-0.258253l-0.0916344 -0.00187244 -0.020352 -0.031241 -0.111684 -0.00993834 -0.0774038 0c-0.00267903,0.0100824 -0.00858442,0.0234487 -0.00858442,0.0258253 0,0.0196894 0.00289508,0.0100104 0.00858442,0.0344241l-0.0386731 0.00182923 -0.0215331 0.0498069 -0.0277697 0.00108025c0.00704326,0.0171688 0.00700005,0.0251339 0.0123437,0.035778 0.00602062,0.0120412 0.00859883,0.0154836 0.00946303,0.0206689 0.000835397,0.00511321 0.0103272,0.0102984 0.0120412,0.0154836 0.0016996,0.00514201 0.0016996,0.00685602 0.00602062,0.0111626 0.00430661,0.00432102 0.00858442,0.00859883 0.00858442,0.00859883 0,0 -0.001714,0.00259261 0.00172841,0.01207 0.00345681,0.00944863 0.011177,0.0171832 0.011177,0.0171832 0,0 -0.0025638,0.00259261 0.00862763,-0.00946303 0.0111914,-0.0120412 0.0180475,-0.0223397 0.0258253,-0.0189261 0.00770582,0.00345681 0.0016996,0.00345681 0.0189117,0.0172265 0.0172121,0.0137552 0.0223973,0.0171832 0.0326957,0.0171832 0.0103272,0 0.0154836,0 0.0223685,-0.000835397 0.00688482,-0.000878607 0.013784,-0.0129198 0.0249755,-0.00603502 0.011177,0.00687042 -0.00430661,0.00515642 0.0180763,0.00773462 0.0223397,0.00260701 0.0223397,0.00604943 0.0275105,0.00260701 0.00518522,-0.00347122 0.0240969,-0.0163767 0.0249611,-0.0120556 0.000878607,0.00430661 0.0103128,0.0129054 -0.00430661,0.0232183 -0.0146483,0.0103272 -0.0826179,0.0146483 -0.0826179,0.0146483l-0.0361237 -0.00348562c0,0 -0.012891,-0.000835397 -0.0137552,0.00606383 -0.000878607,0.00688482 -0.00345681,0.0198047 -0.00345681,0.0198047 0,0 0.0129054,0.0163334 -0.00172841,0.00514201 -0.014605,-0.011177 -0.0232183,-0.0232327 -0.0232183,-0.0232327 0,0 -0.0189261,-0.00345681 -0.0215187,0.0016996 -0.00257821,0.00517082 -0.00599181,0.01207 -0.00776343,0.0189549 -0.0016996,0.00689923 0.00259261,0.0137696 -0.00688482,0.0102984 -0.00943422,-0.0033992 -0.0240681,-0.0275105 -0.0309529,-0.0257821 -0.00689923,0.0016996 0.0215187,0.0257821 -0.0129198,0.00344241 -0.0344385,-0.0223541 -0.0141297,0.0743647 -0.0141297,0.0743647 0,0 -0.0409489,-0.119102 -0.0495189,-0.134629 -0.00861323,-0.0154692 -0.00947743,-0.0214755 -0.0198191,-0.0421443 -0.00616465,-0.0123581 -0.00864204,-0.0286628 -0.00838278,-0.0420147 -0.00230454,-0.00411937 -0.00367287,-0.00954945 -0.00367287,-0.0171832l0 -0.0172121c-0.0181051,-0.0351299 0.135046,-0.215086 0.180806,-0.221812l0.249294 -0.0106441 0.0430229 0 0 -0.0258253c0,-0.0192717 -0.00682721,-0.0188684 -0.0171977,-0.0344097l0.00122429 -0.0354756 -0.0184652 -0.024817c0,-0.157328 -0.0115083,-0.432937 -0.110229,-0.47367l-0.0101832 -0.085873 -0.068805 0c-0.00286628,0.0261854 -0.0169528,0.0430517 -0.0429941,0.0430517l-0.00864204 0c-0.0931756,0 -0.119678,-0.0743935 -0.163407,-0.0860891 -0.0219796,-0.0300167 -0.101544,-0.119505 -0.146238,-0.120513 -0.0315146,-0.0595868 -0.237786,-0.154937 -0.335498,-0.154937l-0.215071 0c-0.0710519,0 -0.12253,0.0145762 -0.184291,0.00321196 -0.0477473,-0.00881488 -0.102725,0.0235351 -0.166575,0.0330414 -0.107925,0.016103 -0.245693,0.135896 -0.268479,0.135896l-0.0385867 0.00265022 -0.0460765 0.0663708c-0.0114795,0.119476 -0.035778,0.17238 -0.035778,0.301132l0.0236792 0.000374488 0.0107449 0.0685314c-0.0191709,0.00511321 -0.0258397,0.00200207 -0.0258397,0.0258109 0,0.0198191 0.00603502,0.0258253 0.0258397,0.0258253l0.0282451 0.00270784c0.0226853,0.0519963 0.0749553,0.134629 0.0749553,0.195296 0,0.0232327 -0.00410497,0.0237224 -0.00822434,0.0419571l0.0322924 0.0101976 0.0189405 0.0769573 0.0248026 -0.000316875 0.00962147 -0.0340928c0.0758915,0.0202656 0.0648297,0.0135248 0.0602206,0.0688626 0.0217923,0.00581897 0.0430229,0.0166071 0.0430229,0.0430373 0,0.029887 -0.0172265,0.0131215 -0.0172265,0.0430373 0,0.0311978 0.0072305,0.0480641 0.0173273,0.0689058l-0.0345249 0.0774759c0.0191709,0.0050844 0.0257965,0.00197327 0.0257965,0.0257821 0,0.0286339 -0.015426,0.0252347 -0.0429941,0.0258397l0 0.0258253 0.0258109 0 0 0.0258109c0.0370455,0.00308233 0.0741055,0.071945 0.0769717,0.110172l-0.042562 0.0103416c-0.0617185,-0.0326525 -0.0269055,-0.0860747 -0.103244,-0.0860747l-0.0344097 0c-0.0334015,0 -0.0258109,0.0285043 -0.028173,0.0590683l-0.0234487 0.0614593c0.0490148,0.0177594 0.109523,0.122213 0.139612,0.170205 0.0256668,0.04092 0.0131935,0.0806158 0.0292965,0.125655 0.0115803,0.0323932 0.034885,0.0668606 0.0455579,0.109322 0.011998,0.0478049 0.0338192,0.0599613 0.0640231,0.0909142 0.0194158,0.0199343 0.0608687,0.0824162 0.0672927,0.0876158 0.0156853,0.0127326 0.080731,0.0415826 0.101659,0.0532205 0.0558564,0.0310537 0.0112779,0.0759347 0.0858874,0.0775767 0.00216051,0.095797 0.0774326,-0.0112058 0.0759923,0.216555l0.02728 0.0330846 0 0.0430373c0.0103848,0.0155413 0.0171977,0.0151668 0.0171977,0.0344385 0,0.0299159 -0.0171977,0.0131647 -0.0171977,0.0430373l0 0.0258685 0.0171977 0 0 0.0688482c0,0.028173 0.0926426,0.106686 0.106513,0.13954l0.065521 0.0412369c0.0550498,0 0.0830212,0.0191277 0.121291,0.0335887 0.0460621,0.0173705 0.0885809,0.000835397 0.14376,0.00145474l0.0101976 0.0252347c0.0635478,0 0.182577,0.0250907 0.197888,-0.0172265l0.051593 0c0.00625107,0 0.0971077,-0.0377081 0.103229,-0.0430517l0.0257821 -0.0258397c0.0538255,-0.0125165 0.120456,-0.14075 0.119231,-0.216224l0.01207 -0.0255228 0.0321484 -0.326395 -0.00858442 -0.10333c-0.00717289,-0.0620354 0.0429941,-0.0823298 0.0429941,-0.14631 0.0117964,-0.0042634 0.0223685,-0.0212882 0.0315722,-0.0449818zm-0.254278 -2.13849l0.244282 -0.0937805 0 -0.181771 -0.00332718 -0.00180042 0.00332718 -0.0137696 0 -0.0190701 0.00458028 0 0.0758915 -0.315305 -2.51162 0c-0.376807,0 -0.685126,0.308305 -0.685126,0.685141l0 4.00162c0.0510456,-0.0215907 0.103071,-0.0414242 0.150631,-0.0893731 0.0715273,-0.072089 0.301665,-0.383303 0.389698,-0.38506l0.00833957 -0.0251483 0.147044 -0.0254364 0.0250907 -0.0162182 0.0685314 -0.0108746c0.00315434,-0.0378953 0.255675,-0.298049 0.258037,-0.404606 0.0342369,-0.00911735 0.163464,-0.27509 0.163464,-0.335714l0.0171688 0 0 -0.0344529c0,-0.0403583 0.0860603,-0.145618 0.0860603,-0.189376 0,-0.0239817 -0.0419571,-0.0649017 -0.0430229,-0.1119l0.00944863 0.00459468 0.0163623 -0.047632 -0.0860171 0c-0.02028,0 -0.0994554,-0.0342369 -0.103244,-0.0688914 -0.0361093,-0.00299591 -0.120441,-0.121133 -0.120441,-0.129126l0 -0.0344241 -0.00666877 0.00668317 -0.0344241 -0.0344241 0.00671198 -0.00668317 -0.0258109 0c-0.0206833,0 -0.0252924,-0.0139713 -0.0430085,-0.0258397l0.000172841 -0.0521403 -0.0259837 -0.00812351 0 -0.0516362c0,-0.0325517 -0.060163,-0.0477184 -0.0898628,-0.0822146 -0.0216627,-0.0251915 -0.0236504,-0.0195166 -0.0466958,-0.0394365 -0.0330702,-0.0286195 -0.0059486,-0.0242841 -0.0384139,-0.0476032 -0.0521979,-0.037492 -0.0483954,-0.0215331 -0.093262,-0.0788154 -0.0358789,-0.0457164 -0.0672639,-0.0467534 -0.0672639,-0.113513l0 -0.0344241c0,-0.000590539 0.0220228,-0.0612 0.0258253,-0.0774903l-0.0258253 0c-0.0206977,0 -0.0516218,-0.0309097 -0.0516218,-0.0516362l0 -0.00862763c0,-0.039811 0.0880912,-0.11082 0.111842,-0.146324l-0.0012531 -0.0440888 0.0184363 -0.0247738c-0.0429509,-0.0677536 0.0344241,-0.394826 0.0363398,-0.480195l0.0325085 -0.036311 0 -0.0689058c0.03392,-0.0179322 0.0946303,-0.130192 0.0946303,-0.180777 0.0391052,-0.0261998 0.0317595,-0.0349714 0.0566774,-0.055165 0.0169528,-0.0137408 0.0567638,-0.0285331 0.0725067,-0.0393213 0.103877,-0.071484 0.187662,-0.161678 0.245088,-0.262675 0.0308809,-0.0543728 0.0593708,-0.0443192 0.0902085,-0.0904821l0.0430373 0c0.0283603,-0.042346 0.0727515,-0.0215763 0.0790602,-0.0734861l0.158236 -0.0643976 0.00355764 0.00877167c0.0112635,-0.0278994 0.0725355,-0.0312698 0.0999884,-0.0463069 0.0408336,-0.0223253 0.0622371,-0.0251627 0.102178,-0.0441176 0.0607679,-0.02885 0.169355,-0.0387163 0.253759,-0.0387163 0.0411217,-0.0275393 0.152604,-0.0645992 0.213156,-0.0794059 0.0989225,-0.0241689 0.151394,0.000662556 0.249424,0.0210866 0.15161,0.031601 0.106383,0.0502967 0.192069,0.109106 0.0411073,0.0282162 0.161304,0.0820273 0.162571,0.138618 0.093262,0.00205969 -0.00724491,0.0409489 0.0860171,0.0430229 0.000302471,0.00108025 0.000619346,0.00208849 0.000936221,0.00313994zm0.285979 -0.251008l0 0.172337 0 0.0150948 -0.0136832 0.00527164 -0.244382 0.0937949c0.0232903,0.0153828 0.0569222,0.0216339 0.0915768,0.0216339l0.0172121 0.00861323 0.00859883 0.0172265c0.0564613,0 0.0647289,0.0390764 0.087515,0.0759779 0.0302327,0.0489715 0.0410209,0.0568646 0.0659675,0.0962435l0.0050844 0.160324 0.133894 0.115083 -0.050988 -0.00132511 -0.0436135 -0.0158869 0 0.068877c0,0.0405888 0.00581897,0.111785 0.0145618,0.163839 0.174468,-0.0291237 0.317537,-0.064484 0.317969,-0.0645848l0.0467678 -0.0115371 -0.0238952 0.0434118c-0.0194302,0.0353603 0.000244858,0.0614881 0.0201503,0.0879615 0.0193294,0.0256668 0.0387883,0.0515786 0.0387883,0.0878463 0,0.0108602 -0.000950624,0.021173 -0.0029815,0.0308809 -0.00524284,0.0252636 -0.0173417,0.0454571 -0.0373048,0.0594716 -0.0186956,0.0131359 -0.0437575,0.0201936 -0.0760499,0.0201936 -0.0190701,0 -0.0409489,-0.00246298 -0.0657515,-0.0076194 -0.01207,-0.00250619 -0.0217635,-0.00276545 -0.0291525,-0.000979431 -0.00839718,0.00203088 -0.0139281,0.0076194 -0.0167656,0.0162614 -0.00414818,0.0125454 -0.00406176,0.0306504 -0.000100824,0.0534798 0.00459468,0.0265743 0.0142882,0.0584058 0.0286051,0.0946159 0.0198911,0.0175145 0.0385003,0.0293829 0.0518234,0.0293829l0.0536238 0.00113787 -0.0278274 0.0590827c0.0768421,0.00174281 0.0315146,0.0344529 0.0946303,0.0344529l0.0257965 0c-0.00282307,0.0341937 -0.00858442,0.0207265 -0.00858442,0.0430517 0,0.0271504 0.0159446,0.0586362 0.0229878,0.0928011 0.00411937,-0.0021029 0.00672639,-0.00429221 0.0076194,-0.00515642 0.0820417,-0.0969781 0.138301,-0.111511 0.175318,-0.0983464l-0.000504119 -0.0158581 -0.000216051 -0.00756178 0.00437863 -0.00609264 0.00668317 -0.00927579 -0.002535 -0.0158725 -0.00609264 -0.0378665 0.0342657 0.0142162 0.204975 0.0851385c0.00460909,-0.0492452 0.0151956,-0.144034 0.0290516,-0.151236l8.64204e-005 0c0.00577576,-0.0029815 0.0147203,-0.00410497 0.0259837,-0.00547329 0.0168088,-0.00205969 0.0412801,-0.00505559 0.0459036,-0.0102552l0 -2.88068e-005c0.0212306,-0.0251483 0.0600766,-0.00684161 0.0810479,0.00301031 0.00303912,0.00144034 0.00544448,0.00259261 0.00596301,0.00282307l4.32102e-005 0 0 1.44034e-005 4.32102e-005 0 1.44034e-005 0 0 0c0.00398974,0.00072017 0.0067984,-0.00858442 0.0168952,-0.0154116 0.0110186,-0.00746096 0.0215763,-0.014605 0.0290516,-0.0173273l0.000316875 -7.2017e-005 0.000216051 -5.76136e-005c0.019675,-0.00685602 0.0468398,0.0223397 0.0624099,0.0480065 0.00243417,0.00403295 0.00472431,0.00812351 0.00672639,0.0120124 0.00216051,0.00417698 0.00387451,0.00797948 0.00501238,0.0110906l-0.019459 0.0076338 0.019459 -0.00754738 4.32102e-005 0.000144034c0.00214611,0.00590539 0.124445,0.0299735 0.124805,0.0300311l0.0224549 0.00436423 -0.00616465 0.0226277c0,0 -0.00757619,0.0025638 -0.00479633,0.00416258l1.44034e-005 -4.32102e-005c0.00622227,0.00322636 0.0104425,0.00718729 0.0149507,0.0113643 0.00463789,0.00434983 0.00992394,0.00924698 0.0200207,0.00924698 0.0160454,0 0.0487699,-0.02885 0.0627124,-0.0411505l7.2017e-005 0 0.00420579 -0.00368727 8.64204e-005 -7.2017e-005c0.011033,-0.00960706 0.0331854,-0.0204672 0.0595148,-0.0236936 0.00472431,-0.000576136 0.00995275,-0.000907414 0.0156277,-0.000936221 0.00563173,-4.32102e-005 0.0111626,0.000230454 0.0165063,0.000878607l0.000288068 2.88068e-005c0.0131215,0.00161318 0.0230454,0.00354324 0.0316155,0.00522843 0.011782,0.00231895 0.0205248,0.00401855 0.0337616,0.00308233 -0.000201648,-0.0419427 0.00422019,-0.0883216 0.0212738,-0.117863l0 -8.64204e-005c0.0236504,-0.04092 0.0581465,-0.0523275 0.0978999,-0.065449 0.0244138,-0.0080803 0.0512041,-0.016924 0.0768709,-0.0346978 0.0653338,-0.0452267 0.314541,-0.0133519 0.372745,-0.00515642l0.141441 -0.196722 0 -0.737871c0,-0.376836 -0.308305,-0.685141 -0.685141,-0.685141l-0.349902 0c0.0175145,0.0391916 0.0588091,0.0904101 0.0776487,0.112764 0.0877887,-0.0348994 0.14762,0.00833957 0.192127,0.0405167 0.0216339,0.0155989 0.0375929,0.0271648 0.0442616,0.0185084 0.0535374,-0.0695684 0.223425,-0.0191133 0.223901,-0.0189693l0.0151524 0.00447946 0 0.0164055c0,0.00136832 0,0.481635 -0.0234919,0.554905 -0.0176298,0.0550066 -0.078873,0.122731 -0.138661,0.156046 -0.0120412,0.00669758 -0.0240681,0.0120989 -0.0357492,0.0158437 -0.0123005,0.00394653 -0.0244426,0.00612144 -0.0360949,0.00612144l0 0.000100824 -0.000100824 0c-0.0404879,0 -0.0681281,-0.0271504 -0.0953505,-0.0539407 -0.0225413,-0.0221524 -0.0447802,-0.0440024 -0.069698,-0.0396958 -0.0213026,0.00368727 -0.0383274,0.0133231 -0.053379,0.0218644 -0.0352883,0.0199919 -0.0626116,0.0354612 -0.108846,-0.00293829 -0.0317163,-0.0263438 -0.0794347,-0.00648153 -0.130005,0.0145474 -0.0213314,0.00885809 -0.0431382,0.0179322 -0.0645272,0.0242841l-0.000129631 4.32102e-005c-0.0659675,0.0195742 -0.163608,-0.0652186 -0.225572,-0.156594 -0.0116667,-0.0172121 -0.0221812,-0.034741 -0.0310537,-0.0518666 -0.00894451,-0.0172697 -0.016247,-0.0342513 -0.0213602,-0.0502246l0.0197038 -0.00688482 -0.0197038 0.00681281 -4.32102e-005 -0.000100824 -1.44034e-005 1.44034e-005c-0.0263582,-0.0821282 -0.0647577,-0.0720458 -0.0995419,-0.0628996l-0.00481073 0.0012531 -7.2017e-005 0c-0.00502678,0.00132511 -0.00995275,0.00164199 -0.0146627,0.00108025 -0.0135536,-0.00164199 -0.0244714,-0.00983752 -0.0329982,-0.0230454 -0.00643832,-0.00996715 -0.0116091,-0.0231463 -0.0155845,-0.0384715 -0.0127902,-0.0493028 -0.0143458,-0.126116 -0.00730252,-0.184781 0.00643832,-0.0534366 -0.0649449,-0.0838566 -0.122458,-0.108342 -0.0200063,-0.00852681 -0.0385867,-0.0164055 -0.0532349,-0.0247882 0.00181483,0.0158437 0.0089013,0.0453563 0.0160886,0.0753153l0 7.2017e-005c0.00627988,0.0261854 0.0126174,0.0526588 0.0155989,0.0746528l0 0.000158437 2.88068e-005 0.000100824 1.44034e-005 0c0.00364406,0.027136 0.00279426,0.0418131 0.00204528,0.0549057 -0.000705766,0.0117676 -0.0012819,0.0219652 0.00324076,0.042346 0.0100392,0.0452699 0.0146771,0.04913 0.0171832,0.0512041 0.00603502,0.00506999 0.00982311,0.00825314 0.0113067,0.0210578l0 7.2017e-005c0.00904533,0.07991 -0.0153252,0.143544 -0.0682433,0.178516 -0.0102696,0.00682721 -0.0216195,0.0124877 -0.0339344,0.0168808 -0.0118684,0.004249 -0.0249611,0.00737454 -0.0391484,0.00923258l-0.000158437 7.2017e-005 -0.000201648 4.32102e-005 0 2.88068e-005c-0.037492,0.00483954 -0.116956,-0.046883 -0.188166,-0.106931 -0.0132079,-0.0111482 -0.0263582,-0.0227718 -0.0390764,-0.0344529 -0.0127758,-0.0117244 -0.0247738,-0.0232759 -0.0356196,-0.0342369l-0.000475312 -0.000475312c-0.0138705,-0.0139857 -0.00998155,-0.0304344 -0.00615025,-0.0467678l2.88068e-005 0c0.00108025,-0.00411937 0.00822434,-0.00181483 0.00515642,-0.0050988 -0.0402575,-0.0423172 -0.0863772,-0.0751857 -0.115904,-0.0942558zm0.205464 1.33446c-0.00112346,-0.00511321 -0.00208849,-0.0100824 -0.00292389,-0.0149219 -0.00524284,-0.0302759 -0.00489715,-0.0556691 0.00155557,-0.0752145 0.00774903,-0.0234631 0.0231319,-0.0386875 0.046739,-0.0444201 0.0132079,-0.00319755 0.028778,-0.00308233 0.046739,0.000648153 0.0220372,0.00455147 0.0411793,0.006784 0.0576136,0.006784 0.0236504,0 0.0409777,-0.00446505 0.0527596,-0.012747 0.0104857,-0.00736013 0.0169384,-0.0184652 0.0198911,-0.0326813 0.00135392,-0.00649593 0.00198767,-0.0137408 0.00198767,-0.0217059 0,-0.0215331 -0.0149939,-0.0414674 -0.0298294,-0.0612 -0.0216051,-0.0287348 -0.0429941,-0.0571815 -0.0378521,-0.0954657 -0.052702,0.0121277 -0.156248,0.0347986 -0.276617,0.0551074l0.000201648 0.00370167 0.000662556 0.01207c0.0100824,0.0227862 0.0293397,0.0509304 0.0385147,0.0726075 0.0170536,0.0401567 -0.00089301,0.0789018 0.0355188,0.0936365l0 0.0430373c0,0.00802269 0.0191277,0.0380106 0.0450394,0.0707639zm1.44044 0.244238l0 8.64204e-005 4.32102e-005 -8.64204e-005 -4.32102e-005 0zm-0.920406 0.710534l-0.000302471 -1.44034e-005 0 7.2017e-005 0.000302471 -5.76136e-005zm-0.000302471 -1.44034e-005l-8.64204e-005 -2.88068e-005 0 0.000144034 8.64204e-005 -4.32102e-005 0 -7.2017e-005zm0.0307512 0.0310825l-0.000201648 8.64204e-005 0.0203088 0.00181483 -0.0201071 -0.00190125zm0 0l-0.000576136 -4.32102e-005c1.44034e-005,-0.000273664 0,-8.64204e-005 -7.2017e-005,8.64204e-005l0.000446505 4.32102e-005 0.000201648 -8.64204e-005zm-0.000662556 0.000144034l-4.32102e-005 0.000115227 2.88068e-005 0 1.44034e-005 -0.000115227zm0.0381402 -0.57507l-0.00187244 0.000129631 -0.00089301 -0.000792187 0.00276545 0.000662556zm-0.711729 -2.11986l-0.0784985 0.32615c0.0275969,0.0165783 0.089762,0.0569078 0.142262,0.11213l7.2017e-005 8.64204e-005c0.0130927,0.0138273 0.0093334,0.0297574 0.00558852,0.0457452l0 8.64204e-005c-0.00100824,0.00429221 -0.0084836,0.0021173 -0.00525724,0.00535806l0.000475312 0.000475312c0.0107449,0.0108746 0.0222676,0.0219508 0.0341504,0.0328974 0.0119692,0.0110042 0.0246874,0.02221 0.0377801,0.0332574 0.0638502,0.0538543 0.131618,0.10068 0.156896,0.0974102l7.2017e-005 0 0.000273664 -2.88068e-005 1.44034e-005 5.76136e-005c0.0108458,-0.00144034 0.021101,-0.00393213 0.0306792,-0.00734573 0.00920377,-0.00329838 0.0176009,-0.00748977 0.0251483,-0.0124733 0.0377369,-0.0249467 0.0553378,-0.0719882 0.0496197,-0.132367 -0.006784,-0.00669758 -0.0169528,-0.0218355 -0.0281298,-0.0721754 -0.00586218,-0.0264302 -0.0050988,-0.0395085 -0.00422019,-0.0545745 0.000633749,-0.011105 0.00135392,-0.023564 -0.00172841,-0.0463933l0 -0.000172841 0 -0.000100824 -1.44034e-005 0c-0.00266463,-0.0195598 -0.00875726,-0.0450106 -0.0147635,-0.0701589l-4.32102e-005 0c-0.0119692,-0.0499222 -0.023708,-0.0989369 -0.0101832,-0.120614 0.0105001,-0.0168232 0.0266319,-0.0204672 0.0506855,-0.00545889l0.000158437 7.2017e-005 0.000158437 0.000129631 0 0c0.0129487,0.00802269 0.0318315,0.0160598 0.0523851,0.0248026 0.0707495,0.0301319 0.158538,0.0675375 0.148153,0.15367 -0.00649593,0.0541136 -0.00524284,0.124215 0.00616465,0.168289 0.00279426,0.0108025 0.00610704,0.0195886 0.00990954,0.025422 0.00159878,0.00249179 0.00269343,0.00398974 0.00309673,0.00419139l0 -2.88068e-005 0.00482514 -0.0012531c0.0525148,-0.0138273 0.11046,-0.0290516 0.149032,0.0912167l-0.0197038 0.00685602 0.0197038 -0.006784 2.88068e-005 8.64204e-005 2.88068e-005 0 0 7.2017e-005 -2.88068e-005 -7.2017e-005 2.88068e-005 0c0.00432102,0.013424 0.0106729,0.0281298 0.0186092,0.043455 0.00802269,0.0154836 0.017673,0.031529 0.0284611,0.0474448 0.0535518,0.0789882 0.132972,0.153785 0.180114,0.139799l0.000115227 -4.32102e-005c0.0206113,-0.00612144 0.0408192,-0.014533 0.0606239,-0.0227718 0.0621218,-0.0258253 0.120729,-0.0501958 0.171213,-0.00828195 0.0247594,0.0205825 0.0414962,0.0111194 0.0630869,-0.00112346 0.0180042,-0.0101832 0.0383706,-0.0217347 0.0665581,-0.0266175 0.045169,-0.00779224 0.0747968,0.0213602 0.104871,0.0508872 0.021245,0.0209137 0.0427781,0.0420723 0.0668606,0.0420723l0.000100824 0 0 8.64204e-005c0.00724491,0 0.0153252,-0.00152676 0.0238952,-0.0042634 0.00920377,-0.0029671 0.0187676,-0.00725931 0.0284035,-0.0126462 0.051665,-0.0287636 0.104151,-0.0859162 0.11877,-0.131589 0.0190125,-0.0592412 0.0211154,-0.439462 0.0213458,-0.524356 -0.0379529,-0.00941982 -0.135997,-0.0293253 -0.165048,0.00839718 -0.0309097,0.0401423 -0.0603934,0.0188396 -0.100291,-0.0100248 -0.0386443,-0.0278994 -0.0913463,-0.0659964 -0.165409,-0.030492l-0.013784 0.00662556 -0.0102552 -0.0116235c-0.000273664,-0.000331278 -0.0739614,-0.0830644 -0.0966324,-0.153396l-1.16643 0zm0.725355 0.611971l0 7.2017e-005 1.44034e-005 -1.44034e-005 -1.44034e-005 -5.76136e-005zm-0.956328 1.45663c0.0230598,0.00554531 0.0162182,0.00859883 0.0344097,0.00859883 0.0185804,0 0.0602062,-0.00901652 0.0602062,-0.0258109 0,-0.0786137 -0.0300167,-0.1049 -0.111972,-0.0959122l-0.0932188 0.0108602 -0.0188108 0.0225845 -0.0623235 0.0165063 0.0540703 0.0201359c0,0.0998731 0.0967332,0.0920953 0.11841,0.071124 0.00900212,-0.00875726 0.00930459,-0.0214034 0.0192285,-0.0280866zm-0.298568 3.41242l-0.105361 0.594356 -0.319525 -0.594356 -0.343924 -0.678875 -0.00787866 0.00397534 0 -0.0258109c-0.0234199,-0.0171544 -0.0688338,-0.0912167 -0.0688338,-0.137725l0 -0.0258397c0.0536959,0.00449386 0.0238664,0.0258397 0.0602062,0.0258397l0.0516218 0 0 0.0171977 0.0343953 0c0.0193294,0 0.0188973,0.00681281 0.0344097,0.0172265l0.154678 0.0107881 0.0431814 -0.00217491c-0.000993834,0.0446361 -0.0233911,0.0505991 -0.0688338,0.0516506 0.00204528,0.0242985 -0.000216051,0.0344241 0.0258109,0.0344241l0.0516218 0 -0.0257821 0.0602782 -0.0558852 0.0808895c-0.00433542,0.0442904 -0.0198479,0.104741 -0.0645848,0.108472 0.00259261,0.0311113 0.0102408,0.0688914 0.0430085,0.0688914l0.0430229 0 0 -0.0172265 0.0774326 0c0.00450826,-0.0542864 0.189102,-0.208331 0.194604,-0.227055 0.0138993,-0.0477184 -0.00913175,-0.049346 0.054416,-0.0488563 0.0485826,0.000360085 0.0588091,-0.00476752 0.0953649,-0.00786425 0.0655354,-0.00557411 0.114723,-0.0214323 0.120124,-0.086406l0.0257965 0 0 0.198003 -0.0266031 0.378723 -0.0163767 5.76136e-005 0 0.154966 -0.00610704 0.0464509zm0.217131 -3.45236c0,0 0.00561732,-0.00165639 0.00760499,-0.000316875 0.00200207,0.00129631 0.00397534,0.000316875 0.0089157,0.00364406 0.00496917,0.00329838 0.00828195,0.00329838 0.00828195,0.00329838 0,0 0.00234775,-0.0029671 0.00234775,0 0,0.00299591 -0.000388892,0.00797948 -0.00299591,0.0106153 -0.00266463,0.00265022 -0.00629428,0.00731692 -0.00861323,0.00894451 -0.00230454,0.00167079 -0.00725931,0.00167079 -0.0089157,0.00133952 -0.00167079,-0.000360085 -0.00694244,-0.00067696 -0.00760499,-0.00397534 -0.000662556,-0.00329838 -0.000662556,-0.0109466 -0.000662556,-0.0109466l0.00164199 -0.012603zm-0.856195 0.169067c0.0693379,0.00867084 0.0998443,-0.0464798 0.11589,-0.0842166l0.0733565 0.0325805 0.0171832 0c0.00514201,0.0191709 0.00204528,0.0258109 0.0258253,0.0258109l0.0258109 0 0.00786425 -0.00571815 -0.104698 -0.112274c0.0105001,-0.00590539 0.00920377,-0.00862763 0.0257965,-0.00862763l0.0212882 0.00496917c0.0947311,0.0993402 0.187633,0.17961 0.234286,0.158941l-0.038313 -0.106167c-0.0233335,-0.100176 -0.0776775,-0.12469 -0.12191,-0.196491 -0.0175289,-0.0284755 -0.0447802,-0.0366422 -0.0757042,-0.0496629l-0.113398 0.00368727c-0.0898916,0.0741487 -0.237397,0.0117244 -0.323428,0.0724491 -0.0501814,0.0353891 -0.0803565,0.106254 -0.122544,0.109754 0.0106153,0.0398686 0.0455723,0.023031 0.0946159,0.0344385l0 -0.0344385c0,-0.0242841 0.0197471,-0.0331854 0.0353603,-0.0362533l0.196894 -0.0325949 0.00862763 0c0.0240825,0 0.0490724,0.021317 0.0515786,0.0516506 -0.000748977,0.000100824 -0.0109034,0.00325517 -0.0262286,0.00816672 0.00783545,0.0121565 0.000950624,0.00695684 0.00998155,0.0234775 0.0093478,0.0171977 0.00309673,0.0046811 0.0171688,0.0156277 0.0140289,0.0109034 0.00309673,0.0218499 0.00780664,0.0358933 0.0046811,0.0140289 0,0.00779224 -0.0156277,0.0093478 -0.0155989,0.00158437 -0.0218355,-0.00469551 -0.0358645,-0.0202944 -0.0140577,-0.0156133 -0.00783545,-0.00936221 -0.0156421,-0.0311833 -0.0033992,-0.00954945 -0.00710087,-0.0155269 -0.0101832,-0.0192141 -0.0548769,0.017817 -0.123984,0.0406608 -0.131892,0.0444057 -0.0451546,0.0214034 -0.148888,0.0613008 -0.160814,0.105937 0.0346834,0.0080803 0.0401567,0.0120124 0.0841446,0.0191709 0.0406176,0.00659675 0.0654634,0.0324797 0.0793339,0.0324797l0.0258109 0c0.0449098,0 0.0171544,-0.0309961 0.0171544,-0.0344241 0,-0.0300311 0.0123725,-0.0688626 0.0430373,-0.0688626l0.00861323 0c0.0159013,0 0.0608543,0.0407904 0.0688194,0.0516362zm0.300772 0.557022c0.0160022,0.0307657 0.0516218,0.0550354 0.0741487,0.0749985 0.0405744,0.0359365 0.0416114,0.0911159 0.0981735,0.0911159 0.039883,0 0.0258685,-0.0160886 0.0774615,-0.0172265 0.040776,0.0886529 0.050772,0.0186812 0.0906838,0.0475024l0.0641383 -0.0560868 0 -0.0430373c0.0382554,-0.0202656 0.0421299,-0.00741775 0.0578152,-0.0550354 0.024673,-0.0748832 -0.0191277,-0.0224693 -0.0406176,-0.0224693 -0.0196174,0 -0.0508008,-0.0657803 -0.146353,-0.0619922 -0.0698565,-0.0135248 -0.179293,0.0572967 -0.231823,0.00695684l-0.0138849 -0.018782c-0.00515642,-0.0097799 -0.00920377,-0.0219076 -0.0119836,-0.0367287l0.00076338 -0.0129775 0.0187676 -0.0413233 0.0149795 -0.0244714 -0.071268 0.0564181c0,0 -0.026243,0.0300743 -0.0356484,0.0375929 -0.00936221,0.00751857 -0.0262718,0.0206833 -0.0262718,0.0206833 0,0 -0.0112058,0.0319755 -0.0112058,0.041381 0,0.00939101 -0.00375929,0.0545024 -0.00375929,0.0545024l0.0262286 -0.0432102c0,0 0.0300311,-0.0319755 0.0412801,-0.0188108 0.00982311,0.0114363 0.0167656,0.0172265 0.0283747,0.0210001zm0.102941 -0.216584l0.028101 -0.0150371 0.0262718 -0.0112779 0.0318747 -0.00939101c0,0 0.0131359,0.0168952 0.0168952,0.0263294 0.00375929,0.00937661 0.00187244,0.0263006 0.00751857,0.035706 0.00561732,0.00940542 0.0206257,0.0376217 0.0206257,0.0376217l0.0150083 0.0131647 -0.033776 -0.0206977c-0.0373192,-0.0207841 -0.0753298,-0.034669 -0.112519,-0.0564181zm-0.0502102 0.714019l0.0150371 0.0120412c0,0 0.00449386,0.00453707 0.0255228,0.00901652 0.0210146,0.00452267 0.0495621,0 0.0495621,0 0,0 0.0420435,-0.0120268 0.0570662,-0.0120268 0.0150227,0 0.0585354,-0.00299591 0.0585354,-0.00299591 0,0 0.0496053,-0.0135824 0.0601054,-0.0135824 0.0105289,0 0.018033,-0.0105289 0.0315578,-0.00751857 0.0134816,0.00301031 0.0255084,0.00301031 0.0330126,0.00301031 0.00750417,0 0.0150227,0.0120556 0.0150227,0.0120556 0,0 0.0120268,0.00748977 0.0195454,0.0120412 0.00748977,0.00452267 0.0195166,0.00453707 0.026992,0.00602062 0.00750417,0.00151236 0.0180475,0.00751857 0.0180475,0.00751857 0,0 -0.0135248,0.0255804 -0.0240393,0.0361525 -0.0105145,0.0105145 -0.0225269,0.0240681 -0.0345249,0.0361381 -0.0120412,0.0120268 -0.0585786,0.0300887 -0.0706054,0.0346114 -0.011998,0.00450826 -0.033027,-0.00149795 -0.0495621,0.00602062 -0.0165063,0.00754738 -0.064556,0.0105577 -0.0825891,0.0225989 -0.0180042,0.0120412 -0.0420579,0.0120412 -0.0630581,0.0240825 -0.0210578,0.0120556 -0.0225413,0.0285907 -0.0450682,0.0240681 -0.0225413,-0.00449386 -0.0315722,-0.00146915 -0.0420579,-0.0195166 -0.0105001,-0.0181195 -0.0255516,-0.0422163 -0.0435991,-0.0662988 -0.0179754,-0.0240825 -0.011998,-0.0195454 -0.0285043,-0.0376361 -0.0165063,-0.0180763 -0.0300167,-0.045169 -0.0300167,-0.045169l-0.0135392 -0.027136 -0.0405167 -0.011998 -0.0142738 -0.0109898c-0.00357204,0.0132655 -0.010284,0.0225125 -0.0267039,0.0225125l-0.0181483 0.00105145c-0.012531,-0.0118396 -0.0257389,-0.0242265 -0.03549,-0.036671 -0.0225557,-0.0285619 -0.0165495,-0.0782824 -0.0165495,-0.0782824 0.00367287,-0.00923258 0.0444777,-0.00992394 0.0515642,-0.0252347 0.122919,-0.0376937 0.0640375,0.0368727 0.25085,-0.0158149l0.0258109 0c0.0192861,0 0.0188973,-0.00681281 0.0346546,-0.0150371l0.103013 -0.0108025c0.00197327,0.0243273 -0.000230454,0.0344241 0.0258109,0.0344241l0.0257677 0c0.0291237,0 0.0816096,-0.0258253 0.137639,-0.0258253 0.0110906,0 0.0216195,0.000662556 0.0312986,0.00220372 0.000705766,-0.000403295 0.00145474,-0.000820993 0.0021317,-0.00129631 0.00835397,-0.00558852 0.0125598,0 0.0265311,-0.00280866 0.0139569,-0.00277986 0.0377081,-0.012603 0.0460765,-0.0195886 0.00836837,-0.00700005 0.0181483,-0.019603 0.0223541,-0.0308089 0.00417698,-0.0111914 0.0223397,-0.0209857 0.0223397,-0.0209857 0,0 0.0097799,0.00697124 0.0209281,0.00838278 0.0112058,0.00141153 0.00979431,0.00979431 0.0167944,0.012603 0.00695684,0.00279426 0,0.0308089 0.00555971,0.0490148 0.00561732,0.0181915 0,0.0210146 -0.00277986,0.0350002 -0.00280866,0.0140001 -0.00420579,0.012603 -0.0223253,0.0195886 -0.0181771,0.00701445 -0.0153684,0.00282307 -0.0223829,-0.00698565 -0.00695684,-0.00980871 -0.00695684,-0.00280866 -0.0139857,-0.0154116 -0.00694244,-0.012603 -0.0181339,-0.00139713 -0.0348706,-0.00139713 -0.0115659,0 -0.0191277,-0.000619346 -0.0227286,-0.00103704 -0.026315,0.00577576 -0.255401,0.0512329 -0.263985,0.0512329 -0.0478337,-7.2017e-005 -0.10889,-0.00362966 -0.155081,-0.000288068 -0.0471999,0.00342801 -0.0981159,0.0258829 -0.137581,0.0258829l-0.0688194 0c-0.000705766,0.0029815 -0.0012675,0.00597741 -0.00174281,0.00900212 0.012819,0.00476752 0.0273664,0.00944863 0.0413521,0.0122285 0.0375352,0.00750417 0.124647,0.0346402 0.124647,0.0346402zm-1.5302 -0.723482c0,0 0.0103272,0.0289364 0.0165351,0.0392637 0.00619346,0.0103416 -0.0144466,0.037204 0.0330702,0.0640663 0.0475456,0.0268911 0.0557987,0.022743 0.0681857,0.0330846 0.0124013,0.0103272 0.0310393,0.0247738 0.0496197,0.0330558 0.0185948,0.00826755 0.0640519,0.0206689 0.0806014,0.0206689 0.0165351,0 0.0434118,-0.00822434 0.0579016,-0.014461 0.0144466,-0.00620786 0.0516362,-0.0330846 0.0516362,-0.0330846 0,0 -0.00205969,0.0578872 -0.00205969,0.076482 0,0.0186092 0.00828195,0.04756 -0.0103416,0.0702598 -0.0186092,0.0227718 -0.14052,0.0289796 -0.150861,-0.00205969 -0.0103416,-0.0309961 -0.0124301,-0.0227286 -0.0475456,-0.0640663 -0.0351299,-0.0412945 -0.062021,-0.0806158 -0.0723194,-0.0847352 -0.010356,-0.00413377 -0.024817,-0.00413377 -0.0433974,-0.0206833 -0.0186092,-0.0165351 -0.024817,0.0144898 -0.0227574,-0.0165351 0.00205969,-0.0309817 -0.00826755,-0.101256 -0.00826755,-0.101256zm0.602638 1.06136c-0.0764388,-0.0793339 -0.157127,-0.189117 -0.157127,-0.307671l0 -0.0344097c0,-0.0166071 0.00269343,-0.0153108 0.00855562,-0.0258397 0.0967044,-0.01714 0.0100104,0.219983 0.576381,0.525133l0 0.0344385 0.0430085 0c0.00197327,0 0.273664,0.14232 0.29249,0.154952l0 0.146338 0.0272656 0.0331134 -0.0444777 0.00133952 -0.0102264 -0.0252203 -0.0413954 -0.000619346c-0.09826,0 -0.67768,-0.484098 -0.694474,-0.501555zm-0.459267 -1.97924c0,0 0.0232471,0.116207 0.027885,0.144077 0.00463789,0.027885 0.0279138,0.144092 0.0418563,0.185905 0.0139281,0.0418563 0.00462349,0.0558132 0.0464798,0.120888 0.0418131,0.0650745 0.0371752,0.0604078 0.0557843,0.10225 0.0185516,0.0418563 0.0464509,0.0929595 0.0464509,0.0929595l0.0557843 0.102264 0.0278994 0.0186092 -0.153411 -0.0139569c0,0 -0.0232183,0.0418275 -0.0418131,0.0650745 -0.0186092,0.0232471 -0.0371752,0.0557843 -0.0743935,0.0697268 -0.0371752,0.0139425 -0.111525,0.0139425 -0.111525,0.0139425l-0.0186092 -0.0371752c0,0 0.0465086,0.00929019 0.0743791,-0.0232471 0.027885,-0.0325517 0.0883072,-0.0371896 0.0883072,-0.0790314 0,-0.0418419 0,-0.0743935 0,-0.0743935l-0.0139137 -0.0511032 -0.102264 0.0139281 -0.102293 -0.0557411c0,0 -0.0557699,-0.009319 -0.0929451,-0.0279138 -0.037204,-0.0186236 -0.079017,-0.0557843 -0.079017,-0.0557843 0,0 -0.0186092,-0.0418275 0.0139281,-0.0278706 0.0325229,0.0139425 0.0790314,0.0325373 0.0790314,0.0325373 0,0 0,0.0232327 0.0511321,0.0371752 0.0511321,0.0139425 0.0418275,0.0139425 0.102264,0.0185804 0.0604222,0.0046667 0.0790026,0.0278994 0.0882928,0.0046667 0.00930459,-0.0232471 0.0232327,-0.00930459 0.0139569,-0.0371896 -0.00930459,-0.0278994 -0.0325373,-0.0697268 -0.0371752,-0.0975974 -0.0046523,-0.0279138 0,-0.0650889 0,-0.0650889 0,0 0.0371752,0.102279 0.0185804,-0.0232183 -0.0185804,-0.125526 -0.0325373,-0.148729 -0.0371752,-0.195252 -0.0046523,-0.0464798 -0.009319,-0.209166 -0.0557987,-0.130149 -0.0464654,0.0790314 -0.0604078,0.0743647 -0.0789882,0.106916 -0.018638,0.0325373 -0.0465086,0.0604222 -0.0650889,0.0883216 -0.0186092,0.0278706 0.0185804,0.0371896 -0.0465086,0.0557555 -0.0650601,0.0185948 -0.0975974,0.0232471 -0.0975974,0.0232471 0,0 0.00930459,-0.0464798 0.0325373,-0.0697268 0.0232759,-0.0232327 0.0836693,-0.102235 0.116207,-0.130149 0.0325373,-0.027885 0.0371752,-0.0325373 0.0743647,-0.0743647 0.0555827,-0.0625107 0.0759635,-0.146324 0.139468,-0.134801l0.0139281 0.106931zm0.813446 -0.943595c0.157458,-0.0697988 0.266247,-0.0814944 0.276257,-0.137135 0.170147,-0.110575 0.186711,-0.0955809 0.305237,0.0493172 0,0 0.0470991,0.0291381 0.0563893,0.057023 0.00930459,0.027885 0.00463789,0.0511321 0.0185804,0.0743791 0.0139425,0.0232471 0.0185948,0.0557843 0.0418131,0.079017 0.0232903,0.0232183 0.0593708,0.0354324 0.0593708,0.0354324 0,0 0.102264,0.0232471 0.0371896,0.027885 -0.0650889,0.00463789 -0.0697412,0.0418419 -0.148729,-0.0232327 -0.079017,-0.0650889 -0.111569,-0.0790314 -0.130163,-0.116207 -0.0186092,-0.0371896 -0.0139281,-0.0929739 -0.0743647,-0.0929739 -0.060451,0 -0.0511465,-0.027885 -0.0976262,-0.0139425 -0.0465086,0.0139425 -0.0790026,0.0371896 -0.139439,0.0465086 -0.0604222,0.00927579 -0.111554,0.00927579 -0.111554,0.00927579l-0.0929595 0.0046523zm0.822736 0.232413c0,0 0.0278706,-0.0511321 0.069698,0.0046523 0.0418563,0.0557411 0.037204,0.0557411 0.0651177,0.0743647 0.0278706,0.0186092 0.12083,0.0232471 0.12083,0.0232471 0,0 -0.0046667,0.0511032 -0.0418419,0.0511032 -0.0371752,0 -0.0557699,0.046523 -0.0836549,0 -0.0279138,-0.0464798 -0.079017,-0.0836549 -0.079017,-0.0836549l-0.0511321 -0.0697124zm1.77124 0.372515l-0.0747104 0.00524284 -0.0427637 0.0643112 -0.0276545 -0.0725067 -0.0716857 -0.0222965 0.0576568 -0.0500518 -0.00156997 -0.078124 0.0632597 0.0415682 0.0707351 -0.0259405 -0.0185516 0.075733 0.0452843 0.0620642zm-0.0103128 1.15347l-0.109509 -0.0668029 -0.118641 0.0476752 0.0274673 -0.129026 -0.0800829 -0.102423 0.126505 -0.0129487 0.0691507 -0.11105 0.0506999 0.121061 0.122832 0.0338336 -0.0951776 0.0877743 0.00675519 0.131906zm0.0103128 -1.95281l-0.0747104 0.00522843 -0.0427637 0.0642968 -0.0276545 -0.0724779 -0.0716857 -0.0223397 0.0576568 -0.0500086 -0.00156997 -0.0781384 0.0632597 0.0415538 0.0707351 -0.0259117 -0.0185516 0.075733 0.0452843 0.0620642zm0.613469 2.73271l-0.0747104 0.00524284 -0.0427637 0.0642823 -0.0276545 -0.0724923 -0.0716857 -0.0222965 0.0576568 -0.0500662 -0.00156997 -0.0780952 0.0632453 0.0415538 0.0707495 -0.0259261 -0.0185516 0.075733 0.0452843 0.0620642zm-1.3478 -0.260241l-0.0746816 0.00521403 -0.0427781 0.0642968 -0.0276401 -0.0724779 -0.0716857 -0.0223253 0.0576424 -0.0500374 -0.00155557 -0.0781096 0.0632597 0.0415538 0.0707351 -0.0259405 -0.0185516 0.075733 0.0452555 0.062093zm0.409604 0.994137l0 -0.467808 -0.124345 0 0 0.474736c0,0.0838854 -0.0256668,0.138172 -0.110546,0.138172 -0.0848792,0 -0.114493,-0.0542864 -0.114493,-0.138172l0 -0.474736 -0.122357 0 0 0.466828c0,0.155946 0.0799244,0.236057 0.23587,0.236057 0.154937,0 0.23587,-0.078124 0.23587,-0.235078zm0.5823 0.22308l0 -0.690888 -0.0957394 0 0.0089013 0.50432c0,0.0276545 0.00394653,0.0641671 0.00394653,0.0641671l-0.00494036 0c0,0 -0.00986633,-0.0384859 -0.0177738,-0.0641671l-0.164818 -0.50432 -0.167771 0 0 0.690888 0.0947311 0 -0.00689923 -0.504349c0,-0.0276257 -0.00494036,-0.066126 -0.00494036,-0.066126l0.00494036 0c0,0 0.00986633,0.0394797 0.0187532,0.066126l0.164818 0.504349 0.166791 0zm0.484602 -0.601068l0 -0.0898196 -0.398729 0 0 0.0898196 0.137207 -0.00198767 0 0.603056 0.123336 0 0 -0.603056 0.138186 0.00198767z"
       id="path5130" /><g
       id="_239052648"><path
         id="_239052744"
         class="fil1"
         d="M3.07911 9.86258l0 -0.0570518 -0.227588 0 0 0.438857 0.0783833 0 0 -0.198738 0.140433 0 0 -0.0570518 -0.140433 0 0 -0.126015 0.149205 0zm0.299691 0.37178c-0.0263438,-0.0482658 -0.0257101,-0.0557987 -0.0257101,-0.0990521l0 -0.0984472c0,-0.0865212 -0.042634,-0.123495 -0.133548,-0.123495 -0.0482802,0 -0.0858874,0.012531 -0.0858874,0.012531l0 0.0514201c0,0 0.038241,-0.0119116 0.076482,-0.0119116 0.0520395,0 0.0727371,0.0175433 0.0727371,0.0683153 -0.0740046,0.0156853 -0.176182,0.0194446 -0.176182,0.12227 0,0.062698 0.0438871,0.0960274 0.100305,0.0960274 0.0551794,0 0.0783689,-0.0327101 0.0884224,-0.0471279l0.0363542 0.0496485 0.0470271 -0.0201792zm-0.0953073 -0.110344c0,0.0407616 -0.0200639,0.0714696 -0.0608111,0.0714696 -0.0257101,0 -0.0451546,-0.0156709 -0.0451546,-0.0420003 0,-0.0508008 0.0438871,-0.0539263 0.105966,-0.0689635l0 0.0394941zm0.337918 0.0996859l-0.0131647 -0.0464077c0,0 -0.0194302,0.0200639 -0.0532926,0.0200639 -0.0495189,0 -0.0721034,-0.0601774 -0.0721034,-0.114089 0,-0.0633317 0.0200639,-0.115991 0.0802413,-0.115991 0.0250907,0 0.0476608,0.00877167 0.0476608,0.00877167l0 -0.0514057c0,0 -0.0288356,-0.0112779 -0.0608111,-0.0112779 -0.0959266,0 -0.13918,0.0664429 -0.13918,0.165509 0,0.091548 0.0394941,0.173143 0.131028,0.173143 0.0557843,0 0.079622,-0.0283171 0.079622,-0.0283171zm0.280261 0.0207841l0 -0.323601 -0.0695972 0 0 0.233234c-0.00816672,0.0112779 -0.0307368,0.0407328 -0.0645704,0.0407328 -0.0319899,0 -0.0401423,-0.0244282 -0.0401423,-0.062698l0 -0.211269 -0.0695828 0 0 0.214423c0,0.0651898 0.0200639,0.116077 0.0909142,0.116077 0.0564181,0 0.0840006,-0.0352163 0.0959266,-0.0471279l0.0294549 0.0402287 0.0275969 0zm0.176154 -0.0101256c-0.0263294,-0.050167 -0.0250763,-0.0551794 -0.0250763,-0.110344l0 -0.364262 -0.0695828 0 0 0.364262c0,0.0570518 0.00187244,0.0658235 0.0282018,0.102826l0.0200639 0.0276977 0.0463933 -0.0201792zm0.189333 -0.25893l0 -0.0539119 -0.0482658 0 0 -0.0815088 -0.0695972 0.0150371 0 0.0664717 -0.0420003 0 0 0.0539119 0.0420003 -0.0012675 0 0.15017c0,0.0568502 0.00188684,0.0656075 0.02885,0.102509l0.0194302 0.0276977 0.0464077 -0.0201792c-0.0263438,-0.0500518 -0.0250907,-0.0550642 -0.0250907,-0.110028l0 -0.15017 0.0482658 0.0012675zm0.292792 0.25893c-0.0263294,-0.0482658 -0.0256957,-0.0557987 -0.0256957,-0.0990521l0 -0.0984472c0,-0.0865212 -0.042634,-0.123495 -0.133548,-0.123495 -0.0482802,0 -0.0858874,0.012531 -0.0858874,0.012531l0 0.0514201c0,0 0.038241,-0.0119116 0.076482,-0.0119116 0.0520395,0 0.0727227,0.0175433 0.0727227,0.0683153 -0.0739902,0.0156853 -0.176182,0.0194446 -0.176182,0.12227 0,0.062698 0.0439015,0.0960274 0.10032,0.0960274 0.0551794,0 0.0783689,-0.0327101 0.088408,-0.0471279l0.0363686 0.0496485 0.0470127 -0.0201792zm-0.0953073 -0.110344c0,0.0407616 -0.0200495,0.0714696 -0.0607967,0.0714696 -0.0257245,0 -0.0451402,-0.0156709 -0.0451402,-0.0420003 0,-0.0508008 0.0438727,-0.0539263 0.105937,-0.0689635l0 0.0394941zm0.415668 0.110344c-0.0256957,-0.0482658 -0.0250619,-0.0557987 -0.0250619,-0.0990521l0 -0.375554 -0.0695972 0 0 0.163623c0,0 -0.02885,-0.0100104 -0.0557987,-0.0100104 -0.0946735,0 -0.137941,0.0777351 -0.137941,0.174915 0,0.089013 0.0370023,0.163738 0.12227,0.163738 0.062698,0 0.084015,-0.0465086 0.084015,-0.0465086l0.0351011 0.0490292 0.0470127 -0.0201792zm-0.0946591 -0.132295c0,0.0508008 -0.0125454,0.0959266 -0.059558,0.0959266 -0.0482802,0 -0.062698,-0.0620786 -0.062698,-0.112217 0,-0.0677248 0.0263294,-0.121003 0.0827619,-0.121003 0.0219364,0 0.0394941,0.00813792 0.0394941,0.00813792l0 0.129155zm0.565492 0.132295c-0.0256957,-0.0482658 -0.0250763,-0.0557987 -0.0250763,-0.0990521l0 -0.375554 -0.0695828 0 0 0.163623c0,0 -0.02885,-0.0100104 -0.0557987,-0.0100104 -0.0946735,0 -0.137927,0.0777351 -0.137927,0.174915 0,0.089013 0.0369879,0.163738 0.122256,0.163738 0.0626836,0 0.0840006,-0.0465086 0.0840006,-0.0465086l0.0351155 0.0490292 0.0470127 -0.0201792zm-0.0946591 -0.132295c0,0.0508008 -0.0125598,0.0959266 -0.059558,0.0959266 -0.0482802,0 -0.062698,-0.0620786 -0.062698,-0.112217 0,-0.0677248 0.0263294,-0.121003 0.0827475,-0.121003 0.0219364,0 0.0395085,0.00813792 0.0395085,0.00813792l0 0.129155zm0.396223 -0.00625107c0,-0.10346 -0.0188108,-0.182448 -0.127902,-0.182448 -0.093406,0 -0.134773,0.0708359 -0.134773,0.164256 0,0.111597 0.0601774,0.174396 0.172394,0.174396 0.0426196,0 0.072089,-0.0120268 0.072089,-0.0120268l0 -0.0520251c0,0 -0.0275681,0.011926 -0.064556,0.011926 -0.0739902,0 -0.109091,-0.0420147 -0.109091,-0.104079l0.191839 0zm-0.071484 -0.0520395l-0.119735 0c0,-0.0294837 0.0150515,-0.0790026 0.0645704,-0.0790026 0.0501526,0 0.055165,0.045774 0.055165,0.0790026zm-2.81245 0.620585l0 -0.001714c0,-0.010961 -0.000158437,-0.352393 -0.000460909,-0.363066 -0.00956385,-0.332632 -0.168649,-0.539825 -0.512487,-0.539825l-0.361784 0 0 1.51943 0.370268 0c0.3567,0 0.504464,-0.261537 0.504464,-0.614823zm-0.219119 0.0016852c0,0.232687 -0.061128,0.458604 -0.293829,0.458604l-0.147764 0 0 -1.21033 0.139281 0c0.220156,0 0.295298,0.171285 0.301852,0.387336 0.000288068,0.0106153 0.000460909,0.351918 0.000460909,0.362706l0 0.0016852zm1.03272 0.210621c0,-0.280232 -0.0509736,-0.494267 -0.346517,-0.494267 -0.253082,0 -0.365184,0.19194 -0.365184,0.445007 0,0.302327 0.163075,0.472475 0.467088,0.472475 0.115501,0 0.195339,-0.0325661 0.195339,-0.0325661l0 -0.140966c0,0 -0.0747392,0.0322636 -0.174944,0.0322636 -0.200438,0 -0.295543,-0.113801 -0.295543,-0.281946l0.519761 0zm-0.193654 -0.140966l-0.324408 0c0,-0.079838 0.0407616,-0.214006 0.174944,-0.214006 0.135867,0 0.149464,0.12397 0.149464,0.214006zm0.742236 -0.193639l0 -0.156248c-0.0407616,0 -0.14098,0.0016852 -0.225888,0.127384l-0.0985192 -0.134196 -0.127384 0.0526588c0.07134,0.129083 0.0696404,0.152863 0.0696404,0.268364l0 0.579463 0.185141 0 0 -0.64062c0.067912,-0.0933916 0.157948,-0.0985048 0.19701,-0.0968052zm0.78981 0.334605c0,-0.280232 -0.0509592,-0.494267 -0.346488,-0.494267 -0.253082,0 -0.365184,0.19194 -0.365184,0.445007 0,0.302327 0.163046,0.472475 0.467088,0.472475 0.115472,0 0.195324,-0.0325661 0.195324,-0.0325661l0 -0.140966c0,0 -0.0747392,0.0322636 -0.174958,0.0322636 -0.200423,0 -0.295529,-0.113801 -0.295529,-0.281946l0.519746 0zm-0.193654 -0.140966l-0.324379 0c0,-0.079838 0.0407472,-0.214006 0.174929,-0.214006 0.135882,0 0.14945,0.12397 0.14945,0.214006zm0.864549 0.487454l-0.0356484 -0.125684c0,0 -0.0526732,0.054344 -0.144394,0.054344 -0.134196,0 -0.19531,-0.163046 -0.19531,-0.309111 0,-0.171544 0.0543584,-0.314239 0.21739,-0.314239 0.0679552,0 0.129083,0.0237944 0.129083,0.0237944l0 -0.139281c0,0 -0.0781384,-0.0305784 -0.164746,-0.0305784 -0.25988,0 -0.377066,0.180057 -0.377066,0.448406 0,0.247969 0.106988,0.469075 0.355,0.469075 0.151164,0 0.215691,-0.0767269 0.215691,-0.0767269zm0.776213 0.0560292l0 -0.58086c0,-0.181728 -0.0611424,-0.31251 -0.24457,-0.31251 -0.122314,0 -0.202137,0.069626 -0.229316,0.0968052l0 -0.715733 -0.186812 0 0 1.5123 0.186812 0 0 -0.631819c0.0271792,-0.030564 0.0917352,-0.110402 0.178343,-0.110402 0.093406,0 0.107003,0.0747392 0.107003,0.181728l0 0.560494 0.18854 0zm0.900198 -0.43988c0,-0.273448 -0.103618,-0.456904 -0.375367,-0.456904 -0.266664,0 -0.375352,0.185127 -0.375352,0.456904 0,0.285346 0.105303,0.462248 0.375352,0.462248 0.266664,0 0.375367,-0.182016 0.375367,-0.462248zm-0.193625 0c0,0.161332 -0.0288788,0.324408 -0.180042,0.324408 -0.147779,0 -0.185141,-0.16476 -0.185141,-0.324408 0,-0.159676 0.033992,-0.317609 0.183442,-0.317609 0.152863,0 0.181742,0.156234 0.181742,0.317609zm-4.87824 0.706285l-0.0675519 0 -0.0515065 0.192372c-0.0046667,0.017961 -0.00734573,0.0467246 -0.00734573,0.0467246l-0.00201648 0c0,0 -0.00334159,-0.0287636 -0.00868525,-0.0467246l-0.0561732 -0.192372 -0.0775911 0 0.102999 0.319899 -0.0133808 0.0502967c-0.0127038,0.047344 -0.0167223,0.0567206 -0.0561588,0.0841446l0.0427781 0.0493604 0.0234343 -0.0207121c0.0327533,-0.0286484 0.0320908,-0.0353459 0.0467966,-0.0835109l0.124402 -0.399478zm0.503139 0.313l-0.022743 -0.0521691c0,0 -0.0193726,0.0307512 -0.0748977,0.0307512 -0.0856138,0 -0.105678,-0.0976406 -0.105678,-0.18324 0,-0.0989801 0.0214178,-0.179913 0.118381,-0.179913 0.0414674,0 0.0708935,0.0147203 0.0708935,0.0147203l0 -0.0608687c0,0 -0.0361093,-0.0147059 -0.0835973,-0.0147059 -0.139785,0 -0.191277,0.0976406 -0.191277,0.240105 0,0.13241 0.048165,0.245549 0.181252,0.245549 0.0755602,0 0.107665,-0.0402287 0.107665,-0.0402287zm0.150688 -0.363844l0 -0.0728812 -0.0742351 0 0 0.0728812 0.0742351 0zm0 0.395287l0 -0.344443 -0.0742351 0 0 0.344443 0.0742351 0zm0.376721 -0.158524c0,-0.110359 -0.0200351,-0.194619 -0.136429,-0.194619 -0.0996427,0 -0.143775,0.0755746 -0.143775,0.175217 0,0.119044 0.0641959,0.186049 0.183917,0.186049 0.0454715,0 0.0769141,-0.012819 0.0769141,-0.012819l0 -0.0555107c0,0 -0.0294405,0.0127038 -0.0688914,0.0127038 -0.0789306,0 -0.116379,-0.044809 -0.116379,-0.111021l0.204643 0zm-0.0762372 -0.0555107l-0.127729 0c0,-0.0314282 0.0160598,-0.0842743 0.0688914,-0.0842743 0.0535086,0 0.0588379,0.0488131 0.0588379,0.0842743zm0.4336 0.214121l0 -0.228841c0,-0.069554 -0.022066,-0.123063 -0.0976406,-0.123063 -0.0595292,0 -0.0896323,0.0374632 -0.101674,0.050167l-0.0387739 -0.0528317 -0.0488275 0.0207265c0.0274241,0.0515065 0.0267471,0.0601918 0.0267471,0.105678l0 0.228164 0.0735581 0 0 -0.248228c0.00937661,-0.0133663 0.0327821,-0.0441464 0.0695684,-0.0441464 0.0334447,0 0.0428069,0.0267615 0.0428069,0.0675519l0 0.224823 0.0742351 0zm0.317869 -0.0221812l-0.0140289 -0.0494757c0,0 -0.0207409,0.021389 -0.0568502,0.021389 -0.0528461,0 -0.0768997,-0.0641959 -0.0768997,-0.121723 0,-0.0675375 0.021389,-0.123725 0.085585,-0.123725 0.0267615,0 0.050844,0.00936221 0.050844,0.00936221l0 -0.0548337c0,0 -0.0307657,-0.0120412 -0.0648873,-0.0120412 -0.102322,0 -0.14847,0.0708935 -0.14847,0.176557 0,0.097655 0.0421443,0.184709 0.139785,0.184709 0.0595292,0 0.0849224,-0.0302183 0.0849224,-0.0302183zm0.151365 -0.373192l0 -0.0728812 -0.0742351 0 0 0.0728812 0.0742351 0zm0 0.395287l0 -0.344443 -0.0742351 0 0 0.344443 0.0742351 0zm0.380077 -0.0107161c-0.0280866,-0.0515065 -0.0273953,-0.0595292 -0.0273953,-0.105678l0 -0.105001c0,-0.092297 -0.0454859,-0.131748 -0.142478,-0.131748 -0.0514921,0 -0.09162,0.0133808 -0.09162,0.0133808l0 0.0548481c0,0 0.0407904,-0.0127326 0.0815808,-0.0127326 0.0555107,0 0.0775911,0.0187388 0.0775911,0.07291 -0.0789306,0.0167223 -0.187935,0.0207409 -0.187935,0.130423 0,0.066875 0.046811,0.102437 0.107017,0.102437 0.0588379,0 0.0835973,-0.0348994 0.094299,-0.0502678l0.0387883 0.0529469 0.0501526 -0.0215187zm-0.101659 -0.117705c0,0.0434694 -0.021389,0.0762372 -0.0648585,0.0762372 -0.0274241,0 -0.0481505,-0.0167079 -0.0481505,-0.0447946 0,-0.0541856 0.0467966,-0.0575416 0.113009,-0.0735725l0 0.0421299zm0.380091 0.0294261c0,-0.113038 -0.14245,-0.0989945 -0.14245,-0.159172 0,-0.0287636 0.0300887,-0.0401423 0.0595148,-0.0401423 0.0354468,0 0.0675375,0.0127038 0.0675375,0.0127038l0 -0.0554963c0,0 -0.0347698,-0.0127038 -0.0755746,-0.0127038 -0.0675375,0 -0.125727,0.0320908 -0.125727,0.101645 0,0.11504 0.142464,0.0969781 0.142464,0.160526 0,0.0300887 -0.0267471,0.0428069 -0.0581897,0.0428069 -0.0421299,0 -0.0702165,-0.0234199 -0.0702165,-0.0234199l-0.0180619 0.047488c0,0 0.0347842,0.032206 0.0949616,0.032206 0.0708935,0 0.125742,-0.0355476 0.125742,-0.106441zm0.493777 -0.0260845c0,-0.145129 -0.183254,-0.133087 -0.183254,-0.225384 0,-0.047488 0.0394653,-0.0655498 0.0869389,-0.0655498 0.0394653,0 0.0789162,0.0153828 0.0789162,0.0153828l0 -0.0621939c0,0 -0.044132,-0.0133808 -0.0922825,-0.0133808 -0.0882928,0 -0.158509,0.044132 -0.158509,0.132425 0,0.144466 0.183254,0.133764 0.183254,0.228726 0,0.0421443 -0.0368007,0.0628708 -0.0789162,0.0628708 -0.053523,0 -0.0916344,-0.0341072 -0.0916344,-0.0341072l-0.019387 0.0581897c0,0 0.0407904,0.0375641 0.117705,0.0375641 0.0862763,0 0.15717,-0.0489427 0.15717,-0.134542zm0.36671 -0.048165c0,-0.10768 -0.0407904,-0.179898 -0.147822,-0.179898 -0.105001,0 -0.147793,0.07291 -0.147793,0.179898 0,0.112375 0.0414674,0.18203 0.147793,0.18203 0.105015,0 0.147822,-0.0716713 0.147822,-0.18203zm-0.0762372 0c0,0.0635478 -0.0113787,0.127744 -0.0709079,0.127744 -0.0581897,0 -0.0728812,-0.0648729 -0.0728812,-0.127744 0,-0.0628564 0.0133663,-0.125065 0.0722042,-0.125065 0.0602062,0 0.0715849,0.0615457 0.0715849,0.125065zm0.375396 0.151149l-0.0140433 -0.0494757c0,0 -0.0207409,0.021389 -0.0568502,0.021389 -0.0528317,0 -0.0769141,-0.0641959 -0.0769141,-0.121723 0,-0.0675375 0.021389,-0.123725 0.0855994,-0.123725 0.0267615,0 0.0508296,0.00936221 0.0508296,0.00936221l0 -0.0548337c0,0 -0.0307657,-0.0120412 -0.0648729,-0.0120412 -0.102336,0 -0.14847,0.0708935 -0.14847,0.176557 0,0.097655 0.0421299,0.184709 0.139785,0.184709 0.0595148,0 0.0849368,-0.0302183 0.0849368,-0.0302183zm0.151336 -0.373192l0 -0.0728812 -0.0742207 0 0 0.0728812 0.0742207 0zm0 0.395287l0 -0.344443 -0.0742207 0 0 0.344443 0.0742207 0zm0.380091 -0.0107161c-0.028101,-0.0515065 -0.0274097,-0.0595292 -0.0274097,-0.105678l0 -0.105001c0,-0.092297 -0.0455003,-0.131748 -0.142478,-0.131748 -0.0514921,0 -0.0916056,0.0133808 -0.0916056,0.0133808l0 0.0548481c0,0 0.0407904,-0.0127326 0.0815808,-0.0127326 0.0555107,0 0.0775911,0.0187388 0.0775911,0.07291 -0.0789162,0.0167223 -0.187935,0.0207409 -0.187935,0.130423 0,0.066875 0.046811,0.102437 0.107003,0.102437 0.0588523,0 0.0835973,-0.0348994 0.0943134,-0.0502678l0.0387883 0.0529469 0.0501526 -0.0215187zm-0.101659 -0.117705c0,0.0434694 -0.0214034,0.0762372 -0.0648729,0.0762372 -0.0274097,0 -0.0481505,-0.0167079 -0.0481505,-0.0447946 0,-0.0541856 0.046811,-0.0575416 0.113023,-0.0735725l0 0.0421299zm0.290459 0.117705c-0.0280722,-0.0534942 -0.0267471,-0.0588523 -0.0267471,-0.117705l0 -0.388575 -0.0742351 0 0 0.388575c0,0.0608543 0.00200207,0.0702165 0.0300887,0.109682l0.0214034 0.0295414 0.0494901 -0.0215187zm0.357348 -0.147808c0,-0.110359 -0.0200639,-0.194619 -0.136443,-0.194619 -0.0996427,0 -0.143789,0.0755746 -0.143789,0.175217 0,0.119044 0.0642103,0.186049 0.183931,0.186049 0.0454715,0 0.0769141,-0.012819 0.0769141,-0.012819l0 -0.0555107c0,0 -0.0294405,0.0127038 -0.0689058,0.0127038 -0.0789162,0 -0.116351,-0.044809 -0.116351,-0.111021l0.204643 0zm-0.0762372 -0.0555107l-0.127744 0c0,-0.0314282 0.0160454,-0.0842743 0.068877,-0.0842743 0.0535086,0 0.0588667,0.0488131 0.0588667,0.0842743zm0.360013 0.11504c0,-0.113038 -0.14245,-0.0989945 -0.14245,-0.159172 0,-0.0287636 0.0300887,-0.0401423 0.0595148,-0.0401423 0.0354468,0 0.0675375,0.0127038 0.0675375,0.0127038l0 -0.0554963c0,0 -0.0347698,-0.0127038 -0.0755458,-0.0127038 -0.0675663,0 -0.125742,0.0320908 -0.125742,0.101645 0,0.11504 0.14245,0.0969781 0.14245,0.160526 0,0.0300887 -0.0267471,0.0428069 -0.0581897,0.0428069 -0.0421299,0 -0.0702165,-0.0234199 -0.0702165,-0.0234199l-0.0180619 0.047488c0,0 0.0347842,0.032206 0.0949616,0.032206 0.0709079,0 0.125742,-0.0355476 0.125742,-0.106441z" /><rect
         id="_239052672"
         class="fil1"
         x="1.91879"
         y="12.2573"
         width="5.35976"
         height="0.0477484" /></g></g></svg>